<?xml version="1.0" encoding="UTF-8" standalone="no"?>
<svg
   xmlns:dc="http://purl.org/dc/elements/1.1/"
   xmlns:cc="http://creativecommons.org/ns#"
   xmlns:rdf="http://www.w3.org/1999/02/22-rdf-syntax-ns#"
   xmlns:svg="http://www.w3.org/2000/svg"
   xmlns="http://www.w3.org/2000/svg"
   xmlns:sodipodi="http://sodipodi.sourceforge.net/DTD/sodipodi-0.dtd"
   xmlns:inkscape="http://www.inkscape.org/namespaces/inkscape"
   version="1.1"
   x="0px"
   y="0px"
   viewBox="17 176.375 48 60"
   enable-background="new 17 176.375 48 48"
   xml:space="preserve"
   id="svg2"
   inkscape:version="0.91 r13725"
   sodipodi:docname="twitter.svg"><metadata
     id="metadata14"><rdf:RDF><cc:Work
         rdf:about=""><dc:format>image/svg+xml</dc:format><dc:type
           rdf:resource="http://purl.org/dc/dcmitype/StillImage" /><dc:title /></cc:Work></rdf:RDF></metadata><defs
     id="defs12" /><sodipodi:namedview
     pagecolor="#ffffff"
     bordercolor="#666666"
     borderopacity="1"
     objecttolerance="10"
     gridtolerance="10"
     guidetolerance="10"
     inkscape:pageopacity="0"
     inkscape:pageshadow="2"
     inkscape:window-width="1500"
     inkscape:window-height="1011"
     id="namedview10"
     showgrid="false"
     inkscape:zoom="5.5625735"
     inkscape:cx="13.497455"
     inkscape:cy="41.382531"
     inkscape:window-x="198"
     inkscape:window-y="76"
     inkscape:window-maximized="0"
     inkscape:current-layer="svg2" /><path
     d="m 41,176.375 c -13.254,0 -24,10.745 -24,24 0,13.255 10.745,24 24,24 13.256,0 24,-10.745 24,-24 0,-13.255 -10.744,-24 -24,-24 z m 12.26,15.618 c 0.035,-0.04 0.066,-0.093 0.115,-0.103 0,0 -0.008,0.016 -0.082,0.154 0.037,0.062 0.074,0.123 0.109,0.186 1.312,0.254 2.285,0.582 2.285,0.795 0,0.168 -0.595,0.494 -1.479,0.844 0.373,0.902 0.679,1.878 0.894,2.913 0.666,3.2 0.33,6.239 -0.729,8.378 -1.791,5.91 -7.276,10.216 -13.774,10.216 -6.105,0 -11.31,-3.808 -13.402,-9.172 2.389,1.767 5.334,2.821 8.533,2.821 1.784,0 3.485,-0.34 5.062,-0.936 -1.715,0.121 -3.481,-0.105 -5.195,-0.756 -5.775,-2.188 -6.85,-9.095 -6.85,-9.095 -0.43,-2.762 0.19,-2.95 1.377,-0.42 0,0 1.407,2.996 5.538,4.561 0.109,0.042 0.221,0.069 0.332,0.104 -0.07,-0.033 -0.143,-0.062 -0.213,-0.1 -5.448,-2.904 -5.633,-9.895 -5.633,-9.895 -0.074,-2.793 0.565,-2.901 1.42,-0.242 0,0 1.013,3.152 4.91,5.23 1.957,1.045 4.068,1.494 6.137,1.431 -0.965,-5.371 0.858,-10.192 4.192,-10.888 1.5,-0.312 3.055,0.265 4.426,1.476 0.396,-0.05 0.836,-0.048 1.302,0.021 1.731,0.26 3.149,0.686 3.149,0.945 0,0.232 -1.131,0.764 -2.604,1.246 0.063,0.1 0.121,0.189 0.18,0.286 z"
     id="path4"
     style="fill:#0000ed;fill-opacity:1"
     inkscape:connector-curvature="0" /></svg>